<?xml version="1.0" encoding="utf-8"?>
<!-- Generator: Adobe Illustrator 23.0.1, SVG Export Plug-In . SVG Version: 6.00 Build 0)  -->
<svg version="1.1" id="Layer_1" xmlns="http://www.w3.org/2000/svg" xmlns:xlink="http://www.w3.org/1999/xlink" x="0px" y="0px"
	 viewBox="0 0 360 360" style="enable-background:new 0 0 360 360;" xml:space="preserve">
<style type="text/css">
	.st0{fill:#FFFFFF;}
	.st1{fill:#696969;}
	.st2{fill:#F36C23;}
	.st3{fill:#EE3324;}
	.st4{fill:#F8C015;}
	.st5{fill:#019966;}
	.st6{fill:#1464B0;}
	.st7{fill:#B5B3DA;}
</style>
<g>
	<path class="st0" d="M239.22,289.61c0,0,38.15-98.04-14.79-171.77c0,0-45.17,37.59-63.12,41.64
		c-17.95,4.05-45.51,18.28-70.56,19.77c-25.04,1.49-41.28,3.28-41.28,3.28l8.48,94.32c0,0,45.06-17.4,83.53-13.09
		S211.29,276.18,239.22,289.61z"/>
	<path class="st0" d="M252.52,70l-28.08,47.83c0,0-35.82,28.37-57.19,38.62s-48.53,16.37-58.67,19.17s-58.51,4.53-58.51,4.53
		l58.37-66.85c0,0,39.2,2.78,71.09-9.22S252.52,70,252.52,70z"/>
	<path class="st2" d="M227.36,116.85c3.02,4.09,12.23,17.65,19.33,39.66c12.59-6.58,22.1-15,29.05-22.96
		c-7.13-14.85-18.13-28.53-34.72-38.87L227.36,116.85z"/>
	<path class="st3" d="M254.1,73.47l-11.97,19.42c15.34,9.56,27.1,22.65,35.11,38.9c7.93-9.5,12.22-18.05,13.81-21.6
		C282.15,94.99,269.82,82.71,254.1,73.47z"/>
	<path class="st4" d="M247.34,158.55c0.39,1.25,0.77,2.51,1.14,3.81c3.49,12.27,6.43,27.95,6.83,46.56
		c13.29-6.78,24.05-15.33,32.3-23.34c-0.61-16.04-3.48-33.64-10.88-49.97C269.61,143.61,260,151.99,247.34,158.55z"/>
	<path class="st2" d="M292.34,112.41c-2.07,4.34-6.53,12.53-14.09,21.44c6.66,14.3,10.49,30.96,11.39,49.71
		c9.8-9.9,15.64-18.63,17.55-21.66C305.1,143.02,300.14,126.5,292.34,112.41z"/>
	<path class="st5" d="M287.66,197.69c0.08-3.01,0.1-6.12,0.03-9.3c-8.3,7.86-18.95,16.08-31.94,22.64
		c-0.13,0.16-0.29,0.31-0.41,0.47c0.13,14.86-1.37,31.52-5.49,49.75c2.47-1.33,6.11-3.35,10.42-5.92l6.82-4.19
		c4.78-3.03,9.98-6.53,15.18-10.4C284.83,228.85,287.21,213.79,287.66,197.69z"/>
	<path class="st4" d="M305.32,219.81c1.81-11.49,3.2-25.32,2.97-39.98c-0.08-5.01-0.34-9.87-0.77-14.59
		c-2.95,4.38-8.87,12.42-17.77,21.17c0.12,3.72,0.14,7.51,0.02,11.39c-0.43,15.17-2.56,29.41-4.94,40.99
		C292.29,233.05,299.57,226.61,305.32,219.81z"/>
	<path class="st6" d="M281.58,243.84c-13.86,10.09-27.42,17.52-32.36,20.12c-1.57,6.59-3.47,13.38-5.77,20.36l32.63-20.24
		C277.19,260.69,279.39,253.5,281.58,243.84z"/>
	<path class="st5" d="M284.16,241.94c-1.96,9-4,16.13-5.33,20.44l19.8-12.28c0.84-2.76,3.66-12.56,6.05-26.37
		C298.7,230.29,291.46,236.46,284.16,241.94z"/>
	<path d="M312.85,179.88c-0.8-51.88-20.99-90.43-58.4-111.5l-0.01,0.01c-0.69-0.39-1.54-0.41-2.25,0
		c-95.02,54.63-142.84,41.71-143.31,41.57c-0.86-0.26-1.8,0.02-2.38,0.71l-58.83,68.89l0.01,0c-0.41,0.48-0.61,1.12-0.54,1.75
		c6.7,55.2,8.13,95.36,8.15,95.76c0.03,0.77,0.44,1.48,1.1,1.88c0.66,0.4,1.48,0.43,2.18,0.1c0.19-0.09,19.43-9.29,51.06-12.3
		c29.18-2.78,75.17-0.71,128.62,24.93c0.31,0.15,0.65,0.22,0.99,0.22c0.29,0,0.59-0.06,0.87-0.17c0.12-0.05,0.22-0.11,0.33-0.18
		l0,0.01l61.32-38.04c0.46-0.28,0.8-0.72,0.97-1.23C302.83,251.96,313.45,218.8,312.85,179.88z M308.29,179.83
		c0.23,14.66-1.16,28.48-2.97,39.98c-5.75,6.8-13.03,13.25-20.49,18.99c2.38-11.58,4.51-25.82,4.94-40.99
		c0.11-3.88,0.09-7.67-0.02-11.39c8.9-8.76,14.82-16.8,17.77-21.17C307.94,169.97,308.21,174.82,308.29,179.83z M287.61,185.57
		c-8.25,8.01-19.01,16.57-32.3,23.34c-0.4-18.61-3.34-34.29-6.83-46.56c-0.37-1.3-0.75-2.56-1.14-3.81
		c12.66-6.55,22.28-14.94,29.38-22.95C284.12,151.93,287,169.53,287.61,185.57z M278.25,133.85c7.56-8.9,12.02-17.1,14.09-21.44
		c7.8,14.09,12.76,30.61,14.84,49.49c-1.91,3.03-7.75,11.76-17.55,21.66C288.74,164.81,284.91,148.15,278.25,133.85z M198.91,140.25
		c2.81,3.77,9.5,13.92,14.65,31.05c-10.76,3.96-23.67,8.25-37.85,12.48c-2.73-12.86-6.16-21.89-7.77-25.73
		c3.79-1.84,7.36-3.69,10.68-5.5C186.27,148.38,193.04,144.2,198.91,140.25z M215.63,170.53c-5.23-17.32-11.97-27.52-14.96-31.48
		c12.16-8.32,20.19-15.39,23.64-18.61c3.35,4.77,11.7,17.88,18.14,38.17c-0.12,0.05-0.23,0.11-0.35,0.17
		c-0.04,0.02-0.08,0.04-0.12,0.07C237.26,161.79,227.99,165.91,215.63,170.53z M130.11,168.05l16.54-27.44
		c9.76-2.21,20.14-5.24,30.85-9.37l-11.21,22.42C155.57,158.91,143.47,163.9,130.11,168.05z M166.04,158.96
		c1.59,3.8,4.97,12.71,7.66,25.41c-12.73,3.75-26.42,7.44-40.46,10.76c-1.79-10.34-3.82-18.19-4.82-21.78
		C142.62,169.17,155.23,164.1,166.04,158.96z M174.12,186.42c1.82,9.17,3.24,20.14,3.38,32.49c-13.58,1.15-27.63,2.25-41.18,3.25
		c-0.46-9.06-1.52-17.57-2.73-24.96C147.64,193.87,161.36,190.19,174.12,186.42z M176.13,185.83c14.22-4.24,27.19-8.54,38.02-12.52
		c3.15,11.06,5.61,24.88,6.06,41.58c-12.11,1.31-26.06,2.61-40.63,3.85C179.42,206.23,177.98,195.11,176.13,185.83z M216.22,172.53
		c12.56-4.69,22-8.87,26.81-11.87c0.01-0.01,0.03-0.01,0.04-0.02c4.16,13.72,7.38,30.55,7.67,50.17
		c-6.83,1.26-16.68,2.56-28.43,3.85C221.86,197.09,219.23,183.07,216.22,172.53z M246.69,156.51c-7.09-22-16.3-35.57-19.33-39.66
		l13.66-22.17c16.59,10.33,27.59,24.01,34.72,38.87C268.79,141.51,259.28,149.93,246.69,156.51z M222.8,115.56
		c-1.14,1.12-8.04,7.74-19.99,16.32l9.79-18.04c6.64-4.1,13.28-8.72,19.82-13.9L222.8,115.56z M198.93,134.6
		c-8,5.51-17.89,11.62-29.51,17.5l11.01-22.02c9.39-3.78,18.99-8.41,28.6-14.08L198.93,134.6z M181.86,127.22l13.11-26.23
		c8.96-3.4,18.62-7.52,28.99-12.51l-12.95,23.85C201.24,118.34,191.45,123.23,181.86,127.22z M178.9,128.42
		c-10.64,4.24-21,7.38-30.75,9.69l16.59-27.53c8.21-2.06,17.32-4.82,27.33-8.51L178.9,128.42z M145.3,138.76
		c-11.41,2.54-21.91,3.95-30.99,4.69l20.84-27.79c7.4-0.61,16.3-1.91,26.71-4.38L145.3,138.76z M143.81,141.24l-16.71,27.72
		c-11.73,3.48-24.4,6.28-37.93,8.02l23.46-31.29C121.7,145.03,132.28,143.7,143.81,141.24z M126.4,173.95
		c0.99,3.55,3.02,11.37,4.8,21.68c-13.56,3.18-27.41,6-40.97,8.24c-1.25-9.97-2.45-18.19-3.03-22.04
		C101.28,180.16,114.39,177.38,126.4,173.95z M131.54,197.69c1.2,7.3,2.23,15.71,2.68,24.64c-15.03,1.11-29.36,2.1-41.63,2.92
		c-0.62-6.63-1.37-13.24-2.11-19.3C104.07,203.71,117.94,200.87,131.54,197.69z M90.46,225.39c-16.55,1.1-29.03,1.87-33.91,2.17
		c-0.47-5.41-1-11.16-1.61-17.23c10.69-0.81,21.95-2.21,33.44-4.05C89.1,212.3,89.84,218.85,90.46,225.39z M90.65,227.49
		c0.6,6.61,1.06,13.16,1.28,19.09c-11.08,0.5-22.35,1.43-33.66,2.88c-0.41-5.84-0.92-12.48-1.55-19.8
		C61.65,229.36,74.13,228.59,90.65,227.49z M92.78,227.35c12.25-0.82,26.54-1.81,41.53-2.92c0.29,7.18,0.18,14.66-0.53,22.14
		c-12.76-0.53-26.1-0.63-39.74-0.08C93.83,240.52,93.37,233.96,92.78,227.35z M136.41,224.27c13.51-1,27.53-2.1,41.09-3.25
		c0,8.98-0.67,18.65-2.35,28.84c-12.13-1.42-25.34-2.58-39.27-3.21C136.59,239.09,136.7,231.53,136.41,224.27z M174.78,251.95
		c-0.76,4.31-1.7,8.7-2.85,13.18c-13.95-2.54-26.79-3.63-38.26-3.84c0.88-4.14,1.55-8.33,2.01-12.53
		C149.54,249.39,162.7,250.54,174.78,251.95z M176.88,252.19c15.52,1.87,29.19,4.14,40.22,6.26c-0.93,5.76-2.08,11.75-3.48,17.96
		c-13.93-5.02-27.2-8.53-39.62-10.9C175.16,260.99,176.12,256.55,176.88,252.19z M177.23,250.12c1.69-10.34,2.38-20.16,2.37-29.27
		c14.56-1.24,28.52-2.54,40.65-3.85c0.19,11.72-0.6,24.83-2.82,39.37C206.39,254.26,192.73,251.98,177.23,250.12z M222.37,216.77
		c11.67-1.28,21.52-2.57,28.4-3.82c0.05,14.97-1.62,31.52-5.86,49.5c-3.87-1.01-12.77-3.2-25.41-5.67
		C221.77,241.88,222.56,228.55,222.37,216.77z M255.34,211.24c13.18-6.59,23.97-14.91,32.35-22.85c0.07,3.18,0.06,6.28-0.03,9.3
		c-0.45,16.1-2.84,31.16-5.39,43.04c-13.1,9.76-26.3,17.22-32.42,20.52C253.99,242.91,255.49,226.17,255.34,211.24z M254.1,73.47
		c15.72,9.25,28.05,21.52,36.95,36.72c-1.6,3.55-5.88,12.1-13.81,21.6c-8.01-16.25-19.77-29.35-35.11-38.9L254.1,73.47z
		 M235.78,94.49c-6.96,5.84-14.03,11-21.13,15.56l12.57-23.16c6.26-3.08,12.76-6.46,19.52-10.2L235.78,94.49z M109.06,114.7
		c3.08,0.67,10.82,1.93,23.32,1.16l-20.85,27.8c-12.78,0.88-22.41,0.42-27.24,0.05L109.06,114.7z M82.61,145.67
		c4.04,0.37,13.79,1.01,27.26,0.2l-23.59,31.46c-10.21,1.19-20.9,1.76-32.03,1.56L82.61,145.67z M85.09,182.05
		c0.56,3.76,1.77,12.06,3.03,22.15c-11.47,1.84-22.71,3.23-33.39,4.04c-0.79-7.83-1.7-16.13-2.74-24.83
		C63.52,183.72,74.57,183.2,85.09,182.05z M58.42,251.57c11.28-1.46,22.52-2.39,33.58-2.89c0.17,6.45,0.01,12.04-0.66,16
		c-15.71,2.88-26.6,6.83-31.63,8.89C59.52,269.52,59.13,261.92,58.42,251.57z M108.96,262.23c-5.55,0.53-10.69,1.25-15.43,2.07
		c0.59-4.06,0.74-9.51,0.58-15.7c13.54-0.55,26.78-0.46,39.45,0.07c-0.47,4.23-1.14,8.44-2.04,12.6c-0.63-0.01-1.27-0.01-1.9-0.01
		C122.06,261.25,115.14,261.63,108.96,262.23z M237.92,286.48c-7.59-3.56-15.03-6.65-22.3-9.34c1.43-6.33,2.61-12.43,3.55-18.29
		c12.6,2.47,21.45,4.66,25.25,5.65C242.67,271.61,240.53,278.93,237.92,286.48z M249.22,263.97c4.94-2.6,18.5-10.04,32.36-20.12
		c-2.2,9.66-4.4,16.85-5.5,20.24l-32.63,20.24C245.75,277.34,247.65,270.56,249.22,263.97z M298.63,250.1l-19.8,12.28
		c1.33-4.31,3.37-11.44,5.33-20.44c7.3-5.48,14.54-11.65,20.51-18.21C302.29,237.54,299.47,247.34,298.63,250.1z"/>
</g>
</svg>
