<?xml version="1.0" encoding="utf-8"?>
<!-- Generator: Adobe Illustrator 23.0.1, SVG Export Plug-In . SVG Version: 6.00 Build 0)  -->
<svg version="1.1" id="Layer_1" xmlns="http://www.w3.org/2000/svg" xmlns:xlink="http://www.w3.org/1999/xlink" x="0px" y="0px"
	 viewBox="0 0 360 360" style="enable-background:new 0 0 360 360;" xml:space="preserve">
<style type="text/css">
	.st0{fill:#FFFFFF;}
	.st1{fill:#696969;}
	.st2{fill:#F36C23;}
	.st3{fill:#EE3324;}
	.st4{fill:#F8C015;}
	.st5{fill:#019966;}
	.st6{fill:#1464B0;}
	.st7{fill:#B5B3DA;}
</style>
<g>
	<g>
		<g>
			<path d="M276.57,307.31c-0.37,0-0.74-0.08-1.08-0.25c-58.66-28.14-109.14-30.41-141.16-27.37c-34.71,3.3-55.83,13.4-56.04,13.5
				c-0.76,0.37-1.66,0.33-2.39-0.11c-0.72-0.44-1.18-1.21-1.21-2.06c-0.02-0.44-1.59-44.52-8.94-105.1c-0.09-0.73,0.15-1.46,0.64-2
				c0.5-0.54,1.21-0.83,1.94-0.81c116.15,4.39,189.66-68.81,190.39-69.55c0.5-0.51,1.21-0.77,1.9-0.74
				c0.71,0.03,1.37,0.37,1.82,0.92c0.61,0.74,14.96,18.63,24.26,51.37c8.56,30.11,14.16,78.93-7.79,140.52
				c-0.24,0.67-0.75,1.21-1.41,1.48C277.21,307.25,276.89,307.31,276.57,307.31z M156.27,273.67c31.19,0,72.47,5.92,118.85,27.69
				c35.45-102.59-6-169.5-14.94-182.22c-5.73,5.36-22.93,20.4-50.14,35.25c-30.12,16.43-78.5,35.51-138.98,33.86
				c5.89,49.37,7.94,87.35,8.47,98.95c7.4-3.04,26.33-9.78,54.06-12.45C140.37,274.09,147.97,273.67,156.27,273.67z"/>
		</g>
	</g>
	<path class="st1" d="M71.07,188.24c5.89,49.37,7.94,87.35,8.47,98.95c7.4-3.04,26.33-9.78,54.06-12.45
		c6.78-0.65,14.37-1.07,22.68-1.07c31.19,0,72.47,5.92,118.85,27.69c35.45-102.59-6-169.5-14.94-182.22
		c-5.73,5.36-22.93,20.4-50.14,35.25C179.92,170.81,131.54,189.89,71.07,188.24z"/>
	<g>
		<path d="M180.08,241.03C180.08,241.03,180.08,241.03,180.08,241.03c-2.18,0-4.13-1.13-5.22-3.01l-40.69-70.46
			c-1.09-1.88-1.09-4.13,0-6.02c1.09-1.89,3.04-3.01,5.22-3.01h12.39V75.79c0-0.24,0.05-6.07,4.9-11.84
			c6.28-7.48,17.25-11.27,32.6-11.27c15.34,0,26.31,3.79,32.6,11.26c4.85,5.77,4.91,11.59,4.91,11.84v48.34h-18.42v34.4h12.4
			c2.18,0,4.12,1.13,5.21,3.01c1.09,1.89,1.09,4.14,0,6.02l-40.69,70.46C184.21,239.91,182.26,241.03,180.08,241.03z M139.4,162.53
			c-1.06,0-1.58,0.71-1.76,1.01c-0.18,0.3-0.53,1.11,0,2.03l40.69,70.46c0.53,0.91,1.4,1.01,1.75,1.01c0,0,0,0,0,0
			c0.35,0,1.23-0.1,1.76-1.01l40.68-70.46c0.53-0.91,0.18-1.72,0-2.03c-0.18-0.31-0.7-1.01-1.76-1.01h-16.39V75.79
			c0-4.08,1.84-11.36,8.26-14.31c-4.96-2.75-12.35-4.8-23.35-4.8c-13.91,0-24.13,3.4-29.54,9.84c-3.92,4.66-3.97,9.22-3.97,9.26
			v86.74H139.4z M208.37,120.14h14.43V75.79c-0.01-0.43-0.19-6.3-6.02-11.42c-8.25,1.41-8.4,11-8.4,11.42V120.14z"/>
	</g>
	<path class="st2" d="M222.52,163.54c-0.18-0.31-0.7-1.01-1.76-1.01h-16.39V75.79c0-4.08,1.84-11.36,8.26-14.31
		c-4.96-2.75-12.35-4.8-23.35-4.8c-13.91,0-24.13,3.4-29.54,9.84c-3.92,4.66-3.96,9.22-3.96,9.26v86.74H139.4
		c-1.06,0-1.58,0.71-1.76,1.01s-0.53,1.11,0,2.03l40.69,70.46c0.53,0.91,1.4,1.01,1.75,1.01c0,0,0,0,0,0c0.35,0,1.23-0.1,1.76-1.01
		l40.68-70.46C223.05,164.65,222.7,163.85,222.52,163.54z"/>
	<path class="st3" d="M216.78,64.37c-8.25,1.41-8.4,11-8.4,11.42v44.34h14.43V75.79C222.79,75.36,222.61,69.49,216.78,64.37z"/>
</g>
</svg>
