<?xml version="1.0" encoding="utf-8"?>
<!-- Generator: Adobe Illustrator 23.0.1, SVG Export Plug-In . SVG Version: 6.00 Build 0)  -->
<svg version="1.1" id="Layer_1" xmlns="http://www.w3.org/2000/svg" xmlns:xlink="http://www.w3.org/1999/xlink" x="0px" y="0px"
	 viewBox="0 0 360 360" style="enable-background:new 0 0 360 360;" xml:space="preserve">
<style type="text/css">
	.st0{fill:#FFFFFF;}
	.st1{fill:#696969;}
	.st2{fill:#F36C23;}
	.st3{fill:#EE3324;}
	.st4{fill:#F8C015;}
	.st5{fill:#019966;}
	.st6{fill:#1464B0;}
	.st7{fill:#B5B3DA;}
</style>
<g>
	<path class="st0" d="M312.7,179.88c-0.79-51.82-20.97-90.33-58.34-111.37l-0.01,0.01c-0.69-0.39-1.53-0.41-2.25,0
		c-94.91,54.57-142.68,41.66-143.14,41.52c-0.86-0.25-1.79,0.02-2.38,0.71l-58.77,68.81l0.01,0c-0.41,0.48-0.61,1.12-0.54,1.75
		c6.69,55.14,8.12,95.25,8.14,95.65c0.03,0.77,0.44,1.48,1.1,1.87c0.66,0.4,1.48,0.43,2.17,0.1c0.19-0.09,19.41-9.28,51-12.29
		c29.14-2.77,75.08-0.71,128.48,24.91c0.31,0.15,0.65,0.22,0.99,0.22c0.29,0,0.59-0.06,0.87-0.17c0.12-0.05,0.22-0.11,0.33-0.18
		l0,0.01l61.25-38c0.46-0.28,0.8-0.72,0.97-1.23C302.69,251.88,313.3,218.76,312.7,179.88z M308.14,179.83
		c0.23,14.63-1.16,28.43-2.96,39.91c-5.75,6.8-13.01,13.25-20.47,18.99c2.38-11.56,4.5-25.79,4.93-40.95
		c0.11-3.87,0.09-7.66-0.02-11.37c8.89-8.75,14.8-16.78,17.75-21.15C307.8,169.97,308.06,174.83,308.14,179.83z M287.48,185.56
		c-8.23,8-19,16.51-32.26,23.28c-0.41-18.57-3.34-34.22-6.82-46.47c-0.37-1.3-0.75-2.55-1.14-3.8
		c12.64-6.55,22.25-14.93,29.35-22.92C284,151.96,286.88,169.54,287.48,185.56z M278.14,133.9c7.55-8.89,12-17.08,14.08-21.41
		c7.79,14.07,12.75,30.57,14.83,49.43c-1.92,3.04-7.76,11.76-17.53,21.63C288.62,164.82,284.79,148.19,278.14,133.9z M136.46,224.22
		c13.5-1,27.5-2.1,41.04-3.24c0,8.97-0.67,18.62-2.34,28.81c-12.12-1.41-25.31-2.57-39.22-3.21
		C136.64,239.02,136.75,231.47,136.46,224.22z M136.37,222.12c-0.46-9.05-1.51-17.55-2.73-24.94c14.03-3.33,27.74-7.01,40.48-10.77
		c1.82,9.16,3.23,20.12,3.38,32.46C163.93,220.02,149.9,221.12,136.37,222.12z M198.89,140.3c2.8,3.74,9.48,13.86,14.64,31.01
		c-10.75,3.96-23.65,8.25-37.81,12.47c-2.73-12.85-6.15-21.86-7.76-25.7c3.79-1.84,7.35-3.68,10.67-5.49
		C186.26,148.42,193.02,144.24,198.89,140.3z M200.65,139.1c12.15-8.31,20.17-15.37,23.61-18.59c3.35,4.76,11.69,17.86,18.12,38.13
		c-0.12,0.05-0.23,0.11-0.35,0.17c-0.04,0.02-0.08,0.04-0.12,0.07c-4.71,2.95-13.98,7.06-26.32,11.68
		C210.36,153.24,203.63,143.05,200.65,139.1z M169.43,152.13l11-21.99c9.38-3.78,18.97-8.4,28.57-14.07l-10.09,18.59
		C190.91,140.16,181.04,146.26,169.43,152.13z M166.3,153.69c-10.71,5.24-22.79,10.23-36.13,14.37l16.52-27.4
		c9.75-2.21,20.12-5.24,30.81-9.36L166.3,153.69z M166.06,158.99c1.59,3.81,4.97,12.71,7.65,25.39
		c-12.71,3.75-26.39,7.43-40.41,10.75c-1.79-10.32-3.82-18.17-4.82-21.76C142.66,169.19,155.26,164.12,166.06,158.99z
		 M176.13,185.82c14.21-4.23,27.16-8.53,37.98-12.51c3.14,11.05,5.6,24.85,6.05,41.54c-12.1,1.31-26.03,2.61-40.58,3.85
		C179.42,206.2,177.99,195.09,176.13,185.82z M216.18,172.54c12.54-4.68,21.98-8.86,26.78-11.86c0.01-0.01,0.03-0.01,0.04-0.02
		c4.16,13.7,7.37,30.52,7.66,50.11c-6.82,1.25-16.67,2.55-28.39,3.84C221.81,197.08,219.19,183.07,216.18,172.54z M246.62,156.54
		c-7.09-21.98-16.29-35.54-19.31-39.62l13.65-22.15c16.57,10.32,27.55,23.99,34.68,38.83C268.69,141.55,259.2,149.97,246.62,156.54z
		 M222.75,115.64c-1.14,1.12-8.04,7.74-19.97,16.3l9.78-18.02c6.64-4.1,13.26-8.71,19.8-13.88L222.75,115.64z M210.98,112.42
		c-9.76,5.99-19.54,10.88-29.12,14.86l13.1-26.2c8.95-3.39,18.6-7.51,28.96-12.49L210.98,112.42z M178.91,128.48
		c-10.63,4.24-20.98,7.38-30.71,9.68l16.58-27.5c8.2-2.05,17.3-4.82,27.3-8.5L178.91,128.48z M145.34,138.81
		c-11.39,2.54-21.89,3.95-30.95,4.68l20.82-27.76c7.39-0.61,16.28-1.91,26.68-4.37L145.34,138.81z M143.85,141.28l-16.69,27.69
		c-11.72,3.47-24.38,6.27-37.89,8.01l23.44-31.25C121.77,145.07,132.34,143.74,143.85,141.28z M126.46,173.96
		c0.99,3.55,3.02,11.36,4.79,21.65c-13.55,3.17-27.38,6-40.93,8.23c-1.25-9.97-2.45-18.17-3.03-22.02
		C101.37,180.16,114.46,177.38,126.46,173.96z M90.56,225.34c-16.51,1.1-28.99,1.87-33.87,2.17c-0.47-5.41-1-11.16-1.61-17.23
		c10.69-0.81,21.92-2.18,33.4-4.02C89.21,212.26,89.94,218.8,90.56,225.34z M90.75,227.44c0.6,6.6,1.06,13.14,1.28,19.07
		c-11.07,0.5-22.32,1.44-33.62,2.89c-0.41-5.83-0.92-12.48-1.55-19.79C61.8,229.31,74.26,228.54,90.75,227.44z M90.58,205.92
		c13.58-2.24,27.43-5.07,41.01-8.25c1.19,7.29,2.22,15.69,2.68,24.61c-15.01,1.11-29.33,2.1-41.58,2.92
		C92.06,218.58,91.32,211.97,90.58,205.92z M134.36,224.38c0.29,7.17,0.18,14.64-0.53,22.11c-12.74-0.53-26.07-0.63-39.69-0.08
		c-0.21-5.97-0.67-12.52-1.26-19.12C105.11,226.48,119.39,225.49,134.36,224.38z M135.73,248.68c13.85,0.63,26.99,1.78,39.06,3.19
		c-0.76,4.3-1.7,8.7-2.83,13.17c-13.94-2.53-26.77-3.63-38.23-3.83C134.61,257.06,135.27,252.88,135.73,248.68z M176.88,252.11
		c15.51,1.86,29.16,4.14,40.18,6.25c-0.92,5.76-2.08,11.74-3.48,17.94c-13.91-5.02-27.16-8.52-39.56-10.88
		C175.17,260.9,176.12,256.46,176.88,252.11z M177.23,250.04c1.69-10.33,2.38-20.13,2.37-29.23c14.54-1.24,28.48-2.54,40.61-3.85
		c0.19,11.71-0.6,24.8-2.82,39.33C206.36,254.17,192.72,251.9,177.23,250.04z M222.32,216.73c11.65-1.28,21.49-2.57,28.37-3.82
		c0.05,14.95-1.61,31.48-5.86,49.44c-3.87-1-12.75-3.2-25.38-5.67C221.73,241.81,222.51,228.5,222.32,216.73z M255.26,211.18
		c13.16-6.58,23.94-14.87,32.31-22.8c0.07,3.17,0.06,6.28-0.03,9.29c-0.45,16.08-2.84,31.12-5.38,42.99
		c-13.09,9.74-26.27,17.2-32.38,20.49C253.91,242.83,255.41,226.1,255.26,211.18z M254.02,73.59c15.7,9.24,28.01,21.5,36.91,36.68
		c-1.59,3.54-5.87,12.08-13.8,21.58c-8-16.23-19.75-29.32-35.07-38.86L254.02,73.59z M235.72,94.59
		c-6.95,5.83-14.01,10.98-21.1,15.54L227.17,87c6.25-3.07,12.75-6.46,19.5-10.19L235.72,94.59z M109.14,114.78
		c3.08,0.67,10.81,1.93,23.29,1.16L111.6,143.7c-12.76,0.87-22.38,0.42-27.2,0.04L109.14,114.78z M82.72,145.71
		c4.03,0.37,13.77,1.01,27.23,0.2l-23.57,31.42c-10.2,1.18-20.87,1.76-32,1.56L82.72,145.71z M85.2,182.05
		c0.56,3.76,1.77,12.04,3.02,22.12c-11.46,1.84-22.68,3.21-33.36,4.01c-0.79-7.81-1.69-16.1-2.73-24.79
		C63.66,183.72,74.69,183.2,85.2,182.05z M58.56,251.5c11.27-1.46,22.5-2.4,33.54-2.9c0.17,6.45,0,12.02-0.66,15.98
		c-15.69,2.88-26.56,6.82-31.59,8.88C59.66,269.42,59.27,261.83,58.56,251.5z M109.04,262.13c-5.55,0.53-10.68,1.25-15.43,2.07
		c0.6-4.06,0.75-9.49,0.59-15.69c13.53-0.54,26.75-0.46,39.41,0.07c-0.47,4.22-1.14,8.43-2.04,12.58c-0.63-0.01-1.27-0.01-1.9-0.01
		C122.12,261.16,115.21,261.54,109.04,262.13z M237.85,286.36c-7.59-3.56-15.02-6.65-22.28-9.33c1.43-6.32,2.61-12.42,3.55-18.27
		c12.58,2.46,21.42,4.65,25.22,5.64C242.6,271.5,240.46,278.82,237.85,286.36z M249.15,263.87c4.93-2.6,18.47-10.02,32.32-20.1
		c-2.2,9.66-4.39,16.83-5.49,20.22l-32.59,20.22C245.68,277.23,247.58,270.45,249.15,263.87z M298.5,250.02l-19.78,12.27
		c1.33-4.3,3.36-11.41,5.33-20.42c7.3-5.48,14.52-11.66,20.5-18.22C302.16,237.46,299.33,247.26,298.5,250.02z"/>
	<g>
		<path class="st1" d="M254.02,73.59l-11.95,19.39c15.32,9.55,27.07,22.63,35.07,38.86c7.93-9.5,12.2-18.04,13.8-21.58
			C282.03,95.08,269.72,82.82,254.02,73.59z"/>
		<path class="st1" d="M307.04,161.92c-2.08-18.86-7.03-35.36-14.83-49.43c-2.08,4.34-6.52,12.52-14.08,21.41
			c6.65,14.29,10.48,30.92,11.38,49.65C299.28,173.68,305.12,164.96,307.04,161.92z"/>
		<path class="st1" d="M287.48,185.56c-0.61-16.02-3.48-33.6-10.87-49.91c-7.1,8-16.71,16.38-29.35,22.92
			c0.38,1.25,0.77,2.5,1.14,3.8c3.48,12.25,6.42,27.9,6.82,46.47C268.48,202.08,279.25,193.56,287.48,185.56z"/>
		<path class="st1" d="M282.16,240.66c2.55-11.87,4.93-26.91,5.38-42.99c0.08-3.01,0.1-6.11,0.03-9.29
			c-8.37,7.93-19.16,16.22-32.31,22.8c0.15,14.92-1.34,31.65-5.48,49.97C255.89,257.86,269.07,250.4,282.16,240.66z"/>
		<path class="st1" d="M227.31,116.92c3.02,4.08,12.22,17.64,19.31,39.62c12.58-6.57,22.07-14.99,29.02-22.94
			c-7.12-14.84-18.11-28.5-34.68-38.83L227.31,116.92z"/>
		<path class="st1" d="M308.14,179.83c-0.08-5-0.34-9.86-0.77-14.57c-2.95,4.37-8.86,12.4-17.75,21.15
			c0.12,3.71,0.14,7.5,0.02,11.37c-0.43,15.15-2.56,29.38-4.93,40.95c7.46-5.74,14.72-12.19,20.47-18.99
			C306.99,208.26,308.38,194.47,308.14,179.83z"/>
		<path class="st1" d="M281.47,243.77c-13.86,10.08-27.39,17.5-32.32,20.1c-1.57,6.58-3.47,13.36-5.76,20.33l32.59-20.22
			C277.08,260.6,279.27,253.43,281.47,243.77z"/>
		<path class="st1" d="M284.05,241.87c-1.96,9.01-3.99,16.11-5.33,20.42l19.78-12.27c0.84-2.76,3.66-12.56,6.05-26.37
			C298.57,230.21,291.35,236.39,284.05,241.87z"/>
	</g>
	<g>
		<path class="st1" d="M220.16,214.85c-0.45-16.69-2.91-30.49-6.05-41.54c-10.81,3.98-23.77,8.28-37.98,12.51
			c1.85,9.27,3.28,20.38,3.44,32.88C194.13,217.45,208.06,216.15,220.16,214.85z"/>
		<path class="st1" d="M177.5,220.98c-13.54,1.15-27.54,2.24-41.04,3.24c0.29,7.25,0.19,14.8-0.52,22.36
			c13.91,0.64,27.11,1.8,39.22,3.21C176.83,239.61,177.5,229.96,177.5,220.98z"/>
		<path class="st1" d="M177.5,218.87c-0.14-12.34-1.56-23.3-3.38-32.46c-12.75,3.76-26.45,7.44-40.48,10.77
			c1.21,7.38,2.27,15.89,2.73,24.94C149.9,221.12,163.93,220.02,177.5,218.87z"/>
		<path class="st1" d="M220.21,216.96c-12.12,1.31-26.06,2.61-40.61,3.85c0.01,9.1-0.68,18.91-2.37,29.23
			c15.49,1.86,29.13,4.13,40.16,6.24C219.61,241.75,220.4,228.66,220.21,216.96z"/>
		<path class="st1" d="M250.67,210.77c-0.29-19.59-3.5-36.41-7.66-50.11c-0.01,0.01-0.03,0.01-0.04,0.02
			c-4.81,3-14.24,7.18-26.78,11.86c3.01,10.53,5.63,24.53,6.09,42.08C233.99,213.33,243.85,212.03,250.67,210.77z"/>
		<path class="st1" d="M109.04,262.13c6.17-0.6,13.08-0.98,20.64-0.98c0.63,0,1.26,0.01,1.9,0.01c0.9-4.15,1.57-8.36,2.04-12.58
			c-12.66-0.53-25.88-0.61-39.41-0.07c0.16,6.2,0,11.63-0.59,15.69C98.36,263.39,103.49,262.67,109.04,262.13z"/>
		<path class="st1" d="M134.36,224.38c-14.98,1.11-29.26,2.1-41.49,2.92c0.59,6.6,1.06,13.15,1.26,19.12
			c13.63-0.55,26.95-0.46,39.69,0.08C134.54,239.02,134.65,231.55,134.36,224.38z"/>
		<path class="st1" d="M87.29,181.82c0.58,3.84,1.78,12.04,3.03,22.02c13.55-2.23,27.38-5.06,40.93-8.23
			c-1.78-10.29-3.8-18.1-4.79-21.65C114.46,177.38,101.37,180.16,87.29,181.82z"/>
		<path class="st1" d="M178.62,152.59c-3.31,1.81-6.88,3.65-10.67,5.49c1.61,3.84,5.03,12.85,7.76,25.7
			c14.17-4.22,27.07-8.51,37.81-12.47c-5.16-17.15-11.84-27.27-14.64-31.01C193.02,144.24,186.26,148.42,178.62,152.59z"/>
		<path class="st1" d="M173.7,184.37c-2.68-12.68-6.06-21.58-7.65-25.39c-10.8,5.13-23.39,10.2-37.58,14.38
			c1,3.59,3.03,11.43,4.82,21.76C147.31,191.8,160.99,188.12,173.7,184.37z"/>
		<path class="st1" d="M200.65,139.1c2.99,3.95,9.72,14.14,14.94,31.44c12.34-4.61,21.61-8.73,26.32-11.68
			c0.04-0.02,0.08-0.05,0.12-0.07c0.12-0.05,0.23-0.11,0.35-0.17c-6.43-20.26-14.77-33.37-18.12-38.13
			C220.82,123.73,212.8,130.79,200.65,139.1z"/>
		<path class="st1" d="M217.06,258.36c-11.02-2.11-24.67-4.38-40.18-6.25c-0.76,4.35-1.71,8.79-2.86,13.31
			c12.4,2.36,25.65,5.87,39.56,10.88C214.98,270.1,216.13,264.12,217.06,258.36z"/>
		<path class="st1" d="M244.34,264.4c-3.81-0.99-12.64-3.18-25.22-5.64c-0.94,5.85-2.12,11.95-3.55,18.27
			c7.26,2.68,14.69,5.77,22.28,9.33C240.46,278.82,242.6,271.5,244.34,264.4z"/>
		<path class="st1" d="M174.78,251.87c-12.07-1.41-25.21-2.55-39.06-3.19c-0.46,4.2-1.12,8.39-2,12.52
			c11.46,0.21,24.29,1.3,38.23,3.83C173.09,260.56,174.02,256.17,174.78,251.87z"/>
		<path class="st1" d="M250.69,212.91c-6.88,1.25-16.72,2.53-28.37,3.82c0.19,11.77-0.59,25.09-2.87,39.96
			c12.63,2.47,21.51,4.66,25.38,5.67C249.08,244.39,250.74,227.86,250.69,212.91z"/>
		<path class="st1" d="M91.43,264.58c0.67-3.96,0.83-9.53,0.66-15.98c-11.04,0.5-22.27,1.44-33.54,2.9
			c0.71,10.33,1.1,17.92,1.28,21.96C64.87,271.4,75.74,267.46,91.43,264.58z"/>
		<path class="st1" d="M134.27,222.28c-0.45-8.92-1.48-17.31-2.68-24.61c-13.58,3.18-27.44,6.01-41.01,8.25
			c0.74,6.05,1.48,12.66,2.11,19.28C104.94,224.38,119.25,223.39,134.27,222.28z"/>
		<path class="st1" d="M90.56,225.34c-0.62-6.54-1.35-13.08-2.08-19.08c-11.48,1.84-22.71,3.22-33.4,4.02
			c0.6,6.06,1.14,11.82,1.61,17.23C61.57,227.21,74.04,226.44,90.56,225.34z"/>
		<path class="st1" d="M92.03,246.51c-0.21-5.93-0.68-12.47-1.28-19.07c-16.49,1.1-28.96,1.87-33.89,2.17
			c0.63,7.32,1.14,13.96,1.55,19.79C69.71,247.95,80.96,247,92.03,246.51z"/>
		<path class="st1" d="M88.22,204.18c-1.25-10.09-2.46-18.37-3.02-22.12c-10.51,1.14-21.54,1.67-33.07,1.35
			c1.04,8.68,1.94,16.98,2.73,24.79C65.54,207.39,76.76,206.01,88.22,204.18z"/>
	</g>
	<g>
		<path class="st1" d="M214.61,110.13c7.09-4.56,14.16-9.71,21.1-15.54l10.96-17.78c-6.75,3.73-13.25,7.11-19.5,10.19L214.61,110.13
			z"/>
		<path class="st1" d="M89.28,176.98c13.51-1.74,26.17-4.54,37.89-8.01l16.69-27.69c-11.52,2.46-22.08,3.79-31.14,4.45L89.28,176.98
			z"/>
		<path class="st1" d="M212.56,113.92l-9.78,18.02c11.93-8.56,18.83-15.18,19.97-16.3l9.62-15.6
			C225.82,105.2,219.2,109.82,212.56,113.92z"/>
		<path class="st1" d="M169.43,152.13c11.6-5.87,21.48-11.97,29.47-17.48L209,116.07c-9.6,5.67-19.19,10.29-28.57,14.07
			L169.43,152.13z"/>
		<path class="st1" d="M130.17,168.06c13.34-4.14,25.43-9.13,36.13-14.37l11.2-22.4c-10.69,4.12-21.07,7.15-30.81,9.36
			L130.17,168.06z"/>
		<path class="st1" d="M181.86,127.28c9.58-3.98,19.36-8.87,29.12-14.86l12.94-23.83c-10.36,4.99-20.01,9.1-28.96,12.49
			L181.86,127.28z"/>
		<path class="st1" d="M109.14,114.78L84.4,143.74c4.83,0.38,14.44,0.83,27.2-0.04l20.82-27.77
			C119.95,116.7,112.22,115.45,109.14,114.78z"/>
		<path class="st1" d="M54.38,178.89c11.12,0.2,21.8-0.37,32-1.56l23.57-31.42c-13.46,0.81-23.19,0.17-27.23-0.2L54.38,178.89z"/>
		<path class="st1" d="M114.39,143.49c9.07-0.74,19.56-2.14,30.95-4.68l16.55-27.45c-10.41,2.46-19.29,3.77-26.68,4.37
			L114.39,143.49z"/>
		<path class="st1" d="M148.19,138.16c9.74-2.3,20.08-5.44,30.71-9.68l13.16-26.32c-10,3.68-19.09,6.44-27.3,8.5L148.19,138.16z"/>
	</g>
</g>
</svg>
