<?xml version="1.0" encoding="utf-8"?>
<!-- Generator: Adobe Illustrator 23.0.1, SVG Export Plug-In . SVG Version: 6.00 Build 0)  -->
<svg version="1.1" id="Layer_1" xmlns="http://www.w3.org/2000/svg" xmlns:xlink="http://www.w3.org/1999/xlink" x="0px" y="0px"
	 viewBox="0 0 360 360" style="enable-background:new 0 0 360 360;" xml:space="preserve">
<style type="text/css">
	.st0{fill:#FFFFFF;}
	.st1{fill:#696969;}
	.st2{fill:#F36C23;}
	.st3{fill:#EE3324;}
	.st4{fill:#F8C015;}
	.st5{fill:#019966;}
	.st6{fill:#1464B0;}
	.st7{fill:#B5B3DA;}
</style>
<g>
	<g>
		<rect x="53.4" y="214.21" class="st7" width="92.39" height="92.39"/>
	</g>
	<g>
		<rect x="110.83" y="156.78" class="st7" width="92.39" height="92.39"/>
	</g>
	<g>
		<rect x="168.26" y="99.34" class="st7" width="92.39" height="92.39"/>
	</g>
	<rect x="214.21" y="53.4" class="st7" width="92.39" height="92.39"/>
	<path d="M306.6,51.4h-92.39c-0.55,0-1.06,0.23-1.42,0.59l-45.93,45.93c-0.01,0.01-0.02,0.02-0.02,0.02L51.99,212.79
		c-0.36,0.36-0.59,0.86-0.59,1.42v92.39c0,1.1,0.89,2,2,2h92.39c0.55,0,1.06-0.23,1.42-0.59l57.42-57.42c0,0,0.01-0.01,0.01-0.01
		l57.42-57.42c0,0,0.01-0.01,0.01-0.01l45.94-45.94c0.36-0.36,0.59-0.86,0.59-1.42V53.4C308.6,52.29,307.71,51.4,306.6,51.4z
		 M216.21,55.4h85.57l-41.95,41.95h-43.62V55.4z M212.21,58.22v39.13h-39.13L212.21,58.22z M166.27,104.17v50.61h-50.61
		L166.27,104.17z M108.83,161.6v50.61H58.22L108.83,161.6z M55.4,216.21h53.44v32.14L55.4,301.78V216.21z M143.79,304.6H58.22
		l53.44-53.44h32.13V304.6z M143.79,247.17h-30.96v-30.97h30.96V247.17z M147.79,301.78v-50.61h50.61L147.79,301.78z M201.23,247.17
		h-53.44v-32.96c0-1.1-0.89-2-2-2h-32.96v-53.44h53.44v32.96c0,1.1,0.89,2,2,2h32.96V247.17z M201.23,189.74h-30.97v-30.96h30.97
		V189.74z M205.22,244.35v-50.61h50.61L205.22,244.35z M258.66,189.74h-53.44v-32.96c0-1.1-0.89-2-2-2h-32.96v-53.44h41.95v44.45
		c0,1.1,0.89,2,2,2h44.45V189.74z M258.66,143.79h-42.45v-42.45h42.45V143.79z M262.65,186.91v-39.13h39.13L262.65,186.91z
		 M262.65,143.79v-43.62l41.95-41.95v85.57H262.65z"/>
</g>
</svg>
