<?xml version="1.0" encoding="utf-8"?>
<!-- Generator: Adobe Illustrator 23.0.1, SVG Export Plug-In . SVG Version: 6.00 Build 0)  -->
<svg version="1.1" id="Layer_1" xmlns="http://www.w3.org/2000/svg" xmlns:xlink="http://www.w3.org/1999/xlink" x="0px" y="0px"
	 viewBox="0 0 504 360" style="enable-background:new 0 0 504 360;" xml:space="preserve">
<style type="text/css">
	.st0{fill:#FFFFFF;}
	.st1{fill:#696969;}
	.st2{fill:#F36C23;}
	.st3{fill:#EE3324;}
	.st4{fill:#F8C015;}
	.st5{fill:#019966;}
	.st6{fill:#1464B0;}
</style>
<g>
	<path class="st0" d="M325.52,292.74c0,0,47.36-121.72-18.36-213.26c0,0-56.08,46.67-78.36,51.69
		c-22.28,5.02-56.51,22.69-87.6,24.55s-51.25,4.07-51.25,4.07l10.53,117.11c0,0,55.94-21.6,103.7-16.25
		C251.96,266,290.85,276.07,325.52,292.74z"/>
	<path class="st0" d="M342.03,20.09l-34.87,59.39c0,0-44.47,35.22-71,47.94s-60.26,20.32-72.84,23.8
		c-12.58,3.48-72.65,5.63-72.65,5.63l72.46-83c0,0,48.67,3.45,88.26-11.44S342.03,20.09,342.03,20.09z"/>
	<g>
		<path d="M115.88,334.16c0,1.03-0.24,2.05-0.72,3.06c-0.48,1.01-1.15,1.86-2.02,2.56c-0.95,0.76-2.05,1.35-3.32,1.78
			c-1.26,0.43-2.78,0.64-4.56,0.64c-1.91,0-3.63-0.18-5.15-0.53c-1.52-0.36-3.08-0.88-4.65-1.58v-4.41h0.25
			c1.34,1.11,2.89,1.97,4.64,2.58c1.75,0.6,3.4,0.91,4.95,0.91c2.18,0,3.88-0.41,5.1-1.23c1.22-0.82,1.82-1.91,1.82-3.27
			c0-1.17-0.29-2.04-0.86-2.6c-0.58-0.56-1.45-0.99-2.62-1.3c-0.89-0.24-1.85-0.43-2.89-0.59c-1.04-0.15-2.14-0.35-3.3-0.59
			c-2.35-0.5-4.09-1.35-5.22-2.55c-1.13-1.2-1.7-2.77-1.7-4.71c0-2.22,0.94-4.04,2.81-5.45c1.87-1.42,4.25-2.13,7.13-2.13
			c1.86,0,3.57,0.18,5.12,0.53c1.55,0.36,2.93,0.8,4.13,1.32v4.16h-0.25c-1.01-0.85-2.33-1.56-3.98-2.13
			c-1.64-0.56-3.32-0.85-5.04-0.85c-1.89,0-3.4,0.39-4.55,1.17c-1.14,0.78-1.72,1.79-1.72,3.02c0,1.1,0.28,1.97,0.85,2.6
			c0.57,0.63,1.57,1.11,3.01,1.44c0.76,0.17,1.84,0.37,3.24,0.61c1.4,0.24,2.59,0.48,3.56,0.73c1.97,0.52,3.45,1.31,4.45,2.37
			C115.38,330.79,115.88,332.26,115.88,334.16z"/>
		<path d="M141.21,341.72h-16.76v-26.49h3.52v23.36h13.24V341.72z"/>
		<path d="M156.98,341.72h-10.46v-2.7h3.47v-21.08h-3.47v-2.7h10.46v2.7h-3.47v21.08h3.47V341.72z"/>
		<path d="M186.35,339.8c-0.65,0.28-1.24,0.55-1.77,0.8c-0.53,0.25-1.22,0.51-2.07,0.78c-0.72,0.23-1.51,0.42-2.36,0.58
			c-0.85,0.16-1.78,0.24-2.8,0.24c-1.92,0-3.67-0.27-5.24-0.81c-1.57-0.54-2.94-1.38-4.1-2.54c-1.14-1.13-2.03-2.56-2.67-4.3
			c-0.64-1.74-0.96-3.76-0.96-6.06c0-2.18,0.31-4.13,0.93-5.85s1.51-3.17,2.67-4.36c1.13-1.15,2.49-2.03,4.08-2.63
			c1.6-0.61,3.37-0.91,5.31-0.91c1.42,0,2.84,0.17,4.26,0.52c1.42,0.34,2.99,0.95,4.72,1.81v4.18h-0.27
			c-1.46-1.22-2.91-2.11-4.34-2.67c-1.44-0.56-2.97-0.84-4.61-0.84c-1.34,0-2.55,0.22-3.62,0.65c-1.07,0.43-2.03,1.11-2.87,2.02
			c-0.82,0.89-1.46,2.01-1.91,3.37s-0.69,2.93-0.69,4.71c0,1.86,0.25,3.46,0.76,4.8c0.5,1.34,1.15,2.43,1.95,3.27
			c0.83,0.88,1.8,1.53,2.91,1.95c1.11,0.42,2.28,0.63,3.51,0.63c1.7,0,3.29-0.29,4.77-0.87c1.48-0.58,2.87-1.45,4.16-2.61h0.25
			V339.8z"/>
		<path d="M211.7,341.72h-17.45v-26.49h17.45v3.13h-13.93v7.26h13.93v3.13h-13.93v9.84h13.93V341.72z"/>
		<path d="M242.12,341.72h-4.57l-8.86-10.53h-4.96v10.53h-3.52v-26.49h7.42c1.6,0,2.94,0.1,4,0.31c1.07,0.21,2.03,0.58,2.88,1.11
			c0.96,0.61,1.71,1.37,2.25,2.29c0.54,0.92,0.81,2.08,0.81,3.5c0,1.91-0.48,3.51-1.44,4.79c-0.96,1.29-2.28,2.26-3.97,2.91
			L242.12,341.72z M233.88,322.69c0-0.76-0.13-1.43-0.4-2.02c-0.27-0.59-0.71-1.08-1.33-1.49c-0.51-0.34-1.12-0.58-1.81-0.72
			c-0.7-0.14-1.52-0.2-2.47-0.2h-4.14v10h3.56c1.11,0,2.09-0.1,2.92-0.29c0.83-0.2,1.54-0.56,2.12-1.09
			c0.53-0.5,0.93-1.07,1.18-1.72C233.76,324.5,233.88,323.68,233.88,322.69z"/>
		<path d="M276.04,341.72h-6.8v-17.74l-4.91,11.51h-4.71l-4.91-11.51v17.74h-6.44v-26.49h7.93l5.96,13.29l5.94-13.29h7.93V341.72z"
			/>
		<path d="M311.48,328.49c0,4.22-1.21,7.58-3.63,10.06c-2.42,2.48-5.76,3.73-10.03,3.73c-4.26,0-7.6-1.24-10.02-3.73
			c-2.42-2.48-3.63-5.84-3.63-10.06c0-4.26,1.21-7.62,3.63-10.1c2.42-2.47,5.76-3.71,10.02-3.71c4.25,0,7.58,1.24,10.02,3.71
			C310.26,320.86,311.48,324.23,311.48,328.49z M302.43,335.19c0.66-0.81,1.16-1.76,1.48-2.85c0.32-1.1,0.48-2.39,0.48-3.87
			c0-1.59-0.18-2.94-0.55-4.06s-0.85-2.02-1.44-2.7c-0.6-0.71-1.3-1.23-2.09-1.55s-1.61-0.48-2.46-0.48c-0.87,0-1.68,0.15-2.45,0.46
			c-0.76,0.31-1.47,0.82-2.11,1.53c-0.59,0.66-1.08,1.58-1.45,2.75c-0.37,1.17-0.56,2.52-0.56,4.06c0,1.58,0.18,2.92,0.54,4.03
			s0.84,2.01,1.43,2.71c0.59,0.7,1.29,1.22,2.08,1.55c0.79,0.33,1.63,0.5,2.51,0.5s1.71-0.17,2.51-0.51
			C301.14,336.43,301.83,335.91,302.43,335.19z"/>
		<path d="M345.12,341.72h-8.34l-7.21-9.71h-3.17v9.71h-6.8v-26.49h11.46c1.57,0,2.91,0.09,4.04,0.27s2.18,0.56,3.17,1.16
			c1,0.59,1.79,1.36,2.38,2.3c0.59,0.94,0.88,2.13,0.88,3.55c0,1.96-0.45,3.55-1.36,4.79c-0.91,1.23-2.2,2.26-3.89,3.08
			L345.12,341.72z M334.46,323.35c0-0.66-0.14-1.23-0.41-1.71s-0.74-0.85-1.41-1.12c-0.46-0.19-1-0.31-1.62-0.35
			s-1.33-0.06-2.15-0.06h-2.47v7.13h2.1c1.09,0,2-0.05,2.74-0.16c0.73-0.11,1.35-0.35,1.85-0.73c0.47-0.37,0.82-0.77,1.04-1.22
			C334.35,324.69,334.46,324.09,334.46,323.35z"/>
		<path d="M372.89,323.6c0,1.19-0.21,2.35-0.62,3.48c-0.41,1.13-1.01,2.08-1.78,2.86c-1.06,1.04-2.23,1.83-3.53,2.37
			c-1.3,0.53-2.91,0.8-4.85,0.8h-4.25v8.63h-6.83v-26.49h11.24c1.68,0,3.1,0.15,4.26,0.44s2.18,0.73,3.07,1.31
			c1.07,0.7,1.88,1.6,2.45,2.69C372.61,320.75,372.89,322.06,372.89,323.6z M365.83,323.75c0-0.75-0.2-1.39-0.61-1.93
			c-0.4-0.54-0.87-0.91-1.41-1.13c-0.71-0.28-1.41-0.44-2.08-0.47c-0.68-0.03-1.58-0.04-2.7-0.04h-1.17v7.92h1.96
			c1.16,0,2.12-0.07,2.87-0.21c0.75-0.14,1.38-0.43,1.9-0.85c0.44-0.38,0.76-0.83,0.95-1.36
			C365.73,325.15,365.83,324.5,365.83,323.75z"/>
		<path d="M404.39,341.72h-6.83v-11.67h-10.09v11.67h-6.83v-26.49h6.83v9.7h10.09v-9.7h6.83V341.72z"/>
	</g>
	<path class="st2" d="M310.8,78.26c3.75,5.07,15.19,21.92,24,49.24c15.63-8.17,27.44-18.62,36.07-28.51
		c-8.85-18.44-22.51-35.42-43.1-48.25L310.8,78.26z"/>
	<path class="st3" d="M344,24.39L329.14,48.5c19.04,11.86,33.64,28.13,43.59,48.3c9.85-11.79,15.17-22.41,17.15-26.82
		C378.82,51.11,363.52,35.87,344,24.39z"/>
	<path class="st4" d="M335.6,130.03c0.48,1.55,0.95,3.11,1.41,4.72c4.33,15.23,7.98,34.7,8.48,57.8
		c16.5-8.41,29.85-19.03,40.1-28.98c-0.75-19.91-4.33-41.76-13.51-62.03C363.26,111.47,351.32,121.89,335.6,130.03z"/>
	<path class="st2" d="M391.47,72.75c-2.57,5.39-8.11,15.56-17.5,26.61c8.27,17.76,13.03,38.44,14.14,61.71
		c12.16-12.29,19.42-23.13,21.79-26.89C407.32,110.75,401.16,90.24,391.47,72.75z"/>
	<path class="st5" d="M385.67,178.62c0.11-3.74,0.12-7.6,0.04-11.54c-10.3,9.75-23.53,19.97-39.66,28.1
		c-0.17,0.19-0.35,0.39-0.51,0.58c0.16,18.45-1.7,39.13-6.81,61.76c3.07-1.65,7.59-4.16,12.94-7.35l8.46-5.21
		c5.93-3.76,12.39-8.11,18.85-12.91C382.14,217.31,385.1,198.61,385.67,178.62z"/>
	<path class="st4" d="M407.59,206.08c2.24-14.27,3.97-31.43,3.68-49.63c-0.1-6.22-0.43-12.25-0.96-18.11
		c-3.66,5.43-11.02,15.41-22.06,26.29c0.15,4.62,0.17,9.32,0.03,14.14c-0.54,18.83-3.18,36.52-6.13,50.89
		C391.41,222.53,400.45,214.53,407.59,206.08z"/>
	<path class="st6" d="M378.12,235.92c-17.21,12.52-34.04,21.75-40.18,24.98c-1.95,8.18-4.31,16.61-7.16,25.27l40.51-25.13
		C372.66,256.84,375.39,247.91,378.12,235.92z"/>
	<path class="st5" d="M381.32,233.55c-2.44,11.18-4.96,20.03-6.62,25.38l24.58-15.24c1.04-3.42,4.55-15.59,7.51-32.73
		C399.37,219.09,390.38,226.75,381.32,233.55z"/>
	<path d="M416.94,156.51c-0.99-64.4-26.06-112.27-72.51-138.43l-0.01,0.02c-0.85-0.48-1.91-0.51-2.79,0
		C223.66,85.92,164.29,69.87,163.71,69.71c-1.07-0.32-2.23,0.03-2.96,0.88l-73.04,85.53l0.01,0.01c-0.51,0.6-0.76,1.39-0.67,2.17
		c8.31,68.53,10.09,118.4,10.11,118.89c0.03,0.96,0.55,1.84,1.37,2.33c0.82,0.5,1.84,0.54,2.7,0.12
		c0.24-0.12,24.13-11.54,63.39-15.28c36.22-3.45,93.32-0.88,159.69,30.96c0.39,0.18,0.81,0.28,1.22,0.28c0.37,0,0.73-0.07,1.08-0.21
		c0.15-0.06,0.28-0.14,0.41-0.22l0.01,0.01l76.14-47.23c0.57-0.35,0.99-0.9,1.2-1.53C404.5,246,417.68,204.83,416.94,156.51z
		 M411.27,156.45c0.29,18.2-1.44,35.36-3.68,49.63c-7.14,8.45-16.18,16.45-25.44,23.57c2.95-14.37,5.6-32.06,6.13-50.89
		c0.14-4.81,0.11-9.52-0.03-14.14c11.05-10.87,18.4-20.85,22.06-26.29C410.85,144.2,411.17,150.23,411.27,156.45z M385.59,163.57
		c-10.24,9.95-23.6,20.57-40.1,28.98c-0.5-23.1-4.15-42.57-8.48-57.8c-0.46-1.61-0.93-3.17-1.41-4.72
		c15.71-8.14,27.66-18.55,36.48-28.49C381.27,121.81,384.84,143.66,385.59,163.57z M373.98,99.36c9.39-11.05,14.92-21.22,17.5-26.61
		c9.69,17.49,15.84,38,18.43,61.44c-2.37,3.76-9.62,14.6-21.79,26.89C387,137.8,382.24,117.12,373.98,99.36z M275.48,107.31
		c3.49,4.68,11.79,17.28,18.19,38.55c-13.36,4.92-29.39,10.25-47,15.49c-3.39-15.96-7.64-27.17-9.65-31.94
		c4.71-2.29,9.14-4.58,13.26-6.83C259.78,117.41,268.19,112.21,275.48,107.31z M296.24,144.9c-6.5-21.5-14.86-34.17-18.57-39.08
		c15.1-10.33,25.06-19.11,29.34-23.11c4.16,5.92,14.53,22.2,22.52,47.39c-0.15,0.07-0.29,0.14-0.43,0.21
		c-0.05,0.02-0.1,0.05-0.15,0.08C323.09,134.05,311.58,139.17,296.24,144.9z M190.06,141.82l20.53-34.06
		c12.11-2.75,25.01-6.51,38.3-11.63l-13.92,27.84C221.67,130.47,206.65,136.67,190.06,141.82z M234.67,130.54
		c1.98,4.71,6.17,15.78,9.51,31.55c-15.8,4.66-32.8,9.23-50.23,13.36c-2.22-12.84-4.75-22.59-5.99-27.04
		C205.59,143.22,221.25,136.92,234.67,130.54z M244.69,164.63c2.26,11.38,4.02,25,4.2,40.34c-16.86,1.43-34.31,2.79-51.13,4.04
		c-0.57-11.25-1.88-21.82-3.39-30.99C211.82,173.88,228.85,169.31,244.69,164.63z M247.19,163.89c17.66-5.26,33.76-10.61,47.2-15.55
		c3.91,13.74,6.96,30.88,7.52,51.63c-15.04,1.63-32.36,3.24-50.44,4.79C251.28,189.23,249.5,175.42,247.19,163.89z M296.97,147.39
		c15.59-5.82,27.32-11.01,33.29-14.74c0.02-0.01,0.03-0.02,0.05-0.03c5.17,17.03,9.17,37.93,9.52,62.28
		c-8.48,1.56-20.71,3.17-35.29,4.78C303.97,177.88,300.71,160.47,296.97,147.39z M334.8,127.49c-8.81-27.32-20.24-44.16-24-49.24
		l16.96-27.52c20.59,12.83,34.25,29.81,43.1,48.25C362.24,108.87,350.43,119.32,334.8,127.49z M305.13,76.66
		c-1.41,1.39-9.99,9.61-24.82,20.26l12.16-22.4c8.25-5.1,16.48-10.82,24.61-17.25L305.13,76.66z M275.5,100.3
		c-9.94,6.84-22.21,14.42-36.63,21.72l13.67-27.34c11.66-4.69,23.58-10.44,35.51-17.49L275.5,100.3z M254.31,91.13l16.28-32.56
		c11.13-4.22,23.12-9.33,36-15.53l-16.08,29.62C278.37,80.11,266.21,86.18,254.31,91.13z M250.64,92.62
		c-13.21,5.26-26.07,9.17-38.17,12.03l20.6-34.18c10.19-2.55,21.5-5.99,33.93-10.56L250.64,92.62z M208.92,105.46
		c-14.16,3.15-27.2,4.9-38.47,5.82l25.88-34.51c9.18-0.75,20.23-2.37,33.16-5.43L208.92,105.46z M207.07,108.53l-20.74,34.41
		c-14.57,4.32-30.3,7.8-47.09,9.96l29.13-38.84C179.62,113.24,192.76,111.59,207.07,108.53z M185.45,149.15
		c1.23,4.41,3.75,14.12,5.96,26.91c-16.84,3.94-34.03,7.45-50.87,10.23c-1.55-12.38-3.04-22.58-3.76-27.36
		C154.27,156.86,170.54,153.41,185.45,149.15z M191.83,178.62c1.49,9.07,2.76,19.5,3.33,30.59c-18.66,1.38-36.45,2.61-51.69,3.63
		c-0.77-8.23-1.7-16.44-2.62-23.97C157.73,186.1,174.95,182.57,191.83,178.62z M140.83,213.02c-20.54,1.37-36.05,2.33-42.1,2.7
		c-0.58-6.71-1.25-13.86-2-21.39c13.28-1,27.25-2.74,41.51-5.03C139.15,196.76,140.06,204.89,140.83,213.02z M141.07,215.62
		c0.74,8.21,1.32,16.34,1.59,23.7c-13.75,0.62-27.74,1.77-41.78,3.58c-0.51-7.25-1.14-15.5-1.92-24.58
		C105.06,217.94,120.56,216.99,141.07,215.62z M143.71,215.44c15.2-1.02,32.95-2.25,51.57-3.62c0.36,8.92,0.22,18.2-0.66,27.49
		c-15.84-0.66-32.4-0.78-49.33-0.1C145.02,231.79,144.45,223.65,143.71,215.44z M197.88,211.63c16.78-1.25,34.18-2.6,51.01-4.03
		c0,11.15-0.83,23.15-2.91,35.81c-15.06-1.76-31.46-3.2-48.75-3.99C198.11,230.02,198.24,220.64,197.88,211.63z M245.52,245.98
		c-0.94,5.35-2.12,10.81-3.53,16.36c-17.32-3.15-33.26-4.51-47.5-4.76c1.1-5.14,1.92-10.34,2.49-15.56
		C214.19,242.81,230.52,244.23,245.52,245.98z M248.13,246.29c19.27,2.32,36.24,5.14,49.93,7.77c-1.15,7.16-2.58,14.59-4.32,22.3
		c-17.3-6.24-33.77-10.59-49.19-13.53C245.99,257.22,247.18,251.69,248.13,246.29z M248.56,243.71c2.1-12.84,2.96-25.02,2.95-36.34
		c18.08-1.54,35.4-3.16,50.47-4.78c0.24,14.55-0.75,30.82-3.51,48.88C284.77,248.85,267.81,246.03,248.56,243.71z M304.6,202.31
		c14.49-1.59,26.71-3.19,35.26-4.74c0.07,18.58-2.01,39.13-7.28,61.45c-4.81-1.25-15.86-3.98-31.55-7.05
		C303.86,233.49,304.84,216.94,304.6,202.31z M345.54,195.45c16.36-8.18,29.75-18.51,40.16-28.37c0.09,3.94,0.07,7.8-0.04,11.54
		c-0.56,19.99-3.52,38.68-6.69,53.43c-16.27,12.11-32.65,21.38-40.25,25.47C343.86,234.77,345.72,213.98,345.54,195.45z M344,24.39
		c19.52,11.48,34.82,26.72,45.88,45.59c-1.98,4.41-7.3,15.03-17.15,26.82c-9.94-20.17-24.55-36.44-43.59-48.3L344,24.39z
		 M321.25,50.5c-8.64,7.25-17.42,13.65-26.23,19.32l15.61-28.75c7.77-3.82,15.85-8.03,24.24-12.66L321.25,50.5z M163.92,75.59
		c3.83,0.84,13.44,2.4,28.95,1.44l-25.88,34.51c-15.87,1.09-27.82,0.53-33.81,0.06L163.92,75.59z M131.09,114.04
		c5.02,0.46,17.12,1.26,33.84,0.25l-29.29,39.06c-12.68,1.47-25.95,2.19-39.77,1.94L131.09,114.04z M134.17,159.21
		c0.7,4.67,2.2,14.97,3.76,27.5c-14.24,2.28-28.2,4.02-41.46,5.01c-0.98-9.72-2.11-20.03-3.4-30.83
		C107.39,161.28,121.11,160.63,134.17,159.21z M101.05,245.51c14.01-1.81,27.96-2.97,41.69-3.58c0.21,8,0.01,14.94-0.82,19.86
		c-19.5,3.58-33.02,8.48-39.27,11.04C102.42,267.8,101.94,258.36,101.05,245.51z M163.8,258.75c-6.89,0.66-13.27,1.56-19.16,2.57
		c0.74-5.04,0.92-11.81,0.72-19.49c16.81-0.68,33.25-0.57,48.98,0.08c-0.58,5.25-1.41,10.48-2.53,15.64
		c-0.79-0.01-1.58-0.01-2.35-0.01C180.06,257.53,171.47,258.01,163.8,258.75z M323.91,288.85c-9.43-4.42-18.66-8.26-27.69-11.59
		c1.78-7.86,3.24-15.43,4.4-22.71c15.64,3.06,26.63,5.78,31.35,7.01C329.81,270.39,327.14,279.49,323.91,288.85z M337.94,260.9
		c6.13-3.23,22.96-12.46,40.18-24.98c-2.73,11.99-5.46,20.92-6.83,25.13l-40.51,25.13C333.63,277.51,335.99,269.09,337.94,260.9z
		 M399.28,243.68l-24.58,15.24c1.65-5.35,4.18-14.2,6.62-25.38c9.06-6.8,18.05-14.46,25.47-22.6
		C403.83,228.09,400.32,240.26,399.28,243.68z"/>
</g>
</svg>
