<?xml version="1.0" encoding="utf-8"?>
<!-- Generator: Adobe Illustrator 23.0.1, SVG Export Plug-In . SVG Version: 6.00 Build 0)  -->
<svg version="1.1" id="Layer_1" xmlns="http://www.w3.org/2000/svg" xmlns:xlink="http://www.w3.org/1999/xlink" x="0px" y="0px"
	 viewBox="0 0 504 360" style="enable-background:new 0 0 504 360;" xml:space="preserve">
<style type="text/css">
	.st0{fill:#FFFFFF;}
	.st1{fill:#696969;}
	.st2{fill:#F36C23;}
	.st3{fill:#EE3324;}
	.st4{fill:#F8C015;}
	.st5{fill:#019966;}
	.st6{fill:#1464B0;}
</style>
<g>
	<g>
		<path d="M115.88,334.16c0,1.03-0.24,2.05-0.72,3.06c-0.48,1.01-1.15,1.86-2.02,2.56c-0.95,0.76-2.05,1.35-3.32,1.78
			c-1.26,0.43-2.78,0.64-4.56,0.64c-1.91,0-3.63-0.18-5.15-0.53c-1.52-0.36-3.08-0.88-4.65-1.58v-4.41h0.25
			c1.34,1.11,2.89,1.97,4.64,2.58c1.75,0.6,3.4,0.91,4.95,0.91c2.18,0,3.88-0.41,5.1-1.23c1.22-0.82,1.82-1.91,1.82-3.27
			c0-1.17-0.29-2.04-0.86-2.6c-0.58-0.56-1.45-0.99-2.62-1.3c-0.89-0.24-1.85-0.43-2.89-0.59c-1.04-0.15-2.14-0.35-3.3-0.59
			c-2.35-0.5-4.09-1.35-5.22-2.55c-1.13-1.2-1.7-2.77-1.7-4.71c0-2.22,0.94-4.04,2.81-5.45c1.87-1.42,4.25-2.13,7.13-2.13
			c1.86,0,3.57,0.18,5.12,0.53c1.55,0.36,2.93,0.8,4.13,1.32v4.16h-0.25c-1.01-0.85-2.33-1.56-3.98-2.13
			c-1.64-0.56-3.32-0.85-5.04-0.85c-1.89,0-3.4,0.39-4.55,1.17c-1.14,0.78-1.72,1.79-1.72,3.02c0,1.1,0.28,1.97,0.85,2.6
			c0.57,0.63,1.57,1.11,3.01,1.44c0.76,0.17,1.84,0.37,3.24,0.61c1.4,0.24,2.59,0.48,3.56,0.73c1.97,0.52,3.45,1.31,4.45,2.37
			C115.38,330.79,115.88,332.26,115.88,334.16z"/>
		<path d="M141.21,341.72h-16.76v-26.49h3.52v23.36h13.24V341.72z"/>
		<path d="M156.98,341.72h-10.46v-2.7h3.47v-21.08h-3.47v-2.7h10.46v2.7h-3.47v21.08h3.47V341.72z"/>
		<path d="M186.35,339.8c-0.65,0.28-1.24,0.55-1.77,0.8c-0.53,0.25-1.22,0.51-2.07,0.78c-0.72,0.23-1.51,0.42-2.36,0.58
			c-0.85,0.16-1.78,0.24-2.8,0.24c-1.92,0-3.67-0.27-5.24-0.81c-1.57-0.54-2.94-1.38-4.1-2.54c-1.14-1.13-2.03-2.56-2.67-4.3
			c-0.64-1.74-0.96-3.76-0.96-6.06c0-2.18,0.31-4.13,0.93-5.85s1.51-3.17,2.67-4.36c1.13-1.15,2.49-2.03,4.08-2.63
			c1.6-0.61,3.37-0.91,5.31-0.91c1.42,0,2.84,0.17,4.26,0.52c1.42,0.34,2.99,0.95,4.72,1.81v4.18h-0.27
			c-1.46-1.22-2.91-2.11-4.34-2.67c-1.44-0.56-2.97-0.84-4.61-0.84c-1.34,0-2.55,0.22-3.62,0.65c-1.07,0.43-2.03,1.11-2.87,2.02
			c-0.82,0.89-1.46,2.01-1.91,3.37s-0.69,2.93-0.69,4.71c0,1.86,0.25,3.46,0.76,4.8c0.5,1.34,1.15,2.43,1.95,3.27
			c0.83,0.88,1.8,1.53,2.91,1.95c1.11,0.42,2.28,0.63,3.51,0.63c1.7,0,3.29-0.29,4.77-0.87c1.48-0.58,2.87-1.45,4.16-2.61h0.25
			V339.8z"/>
		<path d="M211.7,341.72h-17.45v-26.49h17.45v3.13h-13.93v7.26h13.93v3.13h-13.93v9.84h13.93V341.72z"/>
		<path d="M242.12,341.72h-4.57l-8.86-10.53h-4.96v10.53h-3.52v-26.49h7.42c1.6,0,2.94,0.1,4,0.31c1.07,0.21,2.03,0.58,2.88,1.11
			c0.96,0.61,1.71,1.37,2.25,2.29c0.54,0.92,0.81,2.08,0.81,3.5c0,1.91-0.48,3.51-1.44,4.79c-0.96,1.29-2.28,2.26-3.97,2.91
			L242.12,341.72z M233.88,322.69c0-0.76-0.13-1.43-0.4-2.02c-0.27-0.59-0.71-1.08-1.33-1.49c-0.51-0.34-1.12-0.58-1.81-0.72
			c-0.7-0.14-1.52-0.2-2.47-0.2h-4.14v10h3.56c1.11,0,2.09-0.1,2.92-0.29c0.83-0.2,1.54-0.56,2.12-1.09
			c0.53-0.5,0.93-1.07,1.18-1.72C233.76,324.5,233.88,323.68,233.88,322.69z"/>
		<path d="M276.04,341.72h-6.8v-17.74l-4.91,11.51h-4.71l-4.91-11.51v17.74h-6.44v-26.49h7.93l5.96,13.29l5.94-13.29h7.93V341.72z"
			/>
		<path d="M311.48,328.49c0,4.22-1.21,7.58-3.63,10.06c-2.42,2.48-5.76,3.73-10.03,3.73c-4.26,0-7.6-1.24-10.02-3.73
			c-2.42-2.48-3.63-5.84-3.63-10.06c0-4.26,1.21-7.62,3.63-10.1c2.42-2.47,5.76-3.71,10.02-3.71c4.25,0,7.58,1.24,10.02,3.71
			C310.26,320.86,311.48,324.23,311.48,328.49z M302.43,335.19c0.66-0.81,1.16-1.76,1.48-2.85c0.32-1.1,0.48-2.39,0.48-3.87
			c0-1.59-0.18-2.94-0.55-4.06c-0.37-1.11-0.85-2.02-1.44-2.7c-0.6-0.71-1.3-1.23-2.09-1.55s-1.61-0.48-2.46-0.48
			c-0.87,0-1.68,0.15-2.45,0.46c-0.76,0.31-1.47,0.82-2.11,1.53c-0.59,0.66-1.08,1.58-1.45,2.75c-0.37,1.17-0.56,2.52-0.56,4.06
			c0,1.58,0.18,2.92,0.54,4.03s0.84,2.01,1.43,2.71c0.59,0.7,1.29,1.22,2.08,1.55c0.79,0.33,1.63,0.5,2.51,0.5s1.71-0.17,2.51-0.51
			C301.14,336.43,301.83,335.91,302.43,335.19z"/>
		<path d="M345.12,341.72h-8.34l-7.21-9.71h-3.17v9.71h-6.8v-26.49h11.46c1.57,0,2.91,0.09,4.04,0.27s2.18,0.56,3.17,1.16
			c1,0.59,1.79,1.36,2.38,2.3c0.59,0.94,0.88,2.13,0.88,3.55c0,1.96-0.45,3.55-1.36,4.79c-0.91,1.23-2.2,2.26-3.89,3.08
			L345.12,341.72z M334.46,323.35c0-0.66-0.14-1.23-0.41-1.71s-0.74-0.85-1.41-1.12c-0.46-0.19-1-0.31-1.62-0.35
			s-1.33-0.06-2.15-0.06h-2.47v7.13h2.1c1.09,0,2-0.05,2.74-0.16c0.73-0.11,1.35-0.35,1.85-0.73c0.47-0.37,0.82-0.77,1.04-1.22
			C334.35,324.69,334.46,324.09,334.46,323.35z"/>
		<path d="M372.89,323.6c0,1.19-0.21,2.35-0.62,3.48c-0.41,1.13-1.01,2.08-1.78,2.86c-1.06,1.04-2.23,1.83-3.53,2.37
			c-1.3,0.53-2.91,0.8-4.85,0.8h-4.25v8.63h-6.83v-26.49h11.24c1.68,0,3.1,0.15,4.26,0.44s2.18,0.73,3.07,1.31
			c1.07,0.7,1.88,1.6,2.45,2.69C372.61,320.75,372.89,322.06,372.89,323.6z M365.83,323.75c0-0.75-0.2-1.39-0.61-1.93
			c-0.4-0.54-0.87-0.91-1.41-1.13c-0.71-0.28-1.41-0.44-2.08-0.47c-0.68-0.03-1.58-0.04-2.7-0.04h-1.17v7.92h1.96
			c1.16,0,2.12-0.07,2.87-0.21c0.75-0.14,1.38-0.43,1.9-0.85c0.44-0.38,0.76-0.83,0.95-1.36
			C365.73,325.15,365.83,324.5,365.83,323.75z"/>
		<path d="M404.39,341.72h-6.83v-11.67h-10.09v11.67h-6.83v-26.49h6.83v9.7h10.09v-9.7h6.83V341.72z"/>
	</g>
	<path class="st0" d="M416.94,156.51c-0.99-64.4-26.06-112.27-72.51-138.43l-0.01,0.02c-0.85-0.48-1.91-0.51-2.79,0
		C223.66,85.92,164.29,69.87,163.71,69.71c-1.07-0.32-2.23,0.03-2.96,0.88l-73.04,85.53l0.01,0.01c-0.51,0.6-0.76,1.39-0.67,2.17
		c8.31,68.53,10.09,118.4,10.11,118.89c0.03,0.96,0.55,1.84,1.37,2.33c0.82,0.5,1.84,0.54,2.7,0.12
		c0.24-0.12,24.13-11.54,63.39-15.28c36.22-3.45,93.32-0.88,159.69,30.96c0.39,0.18,0.81,0.28,1.22,0.28c0.37,0,0.73-0.07,1.08-0.21
		c0.15-0.06,0.28-0.14,0.41-0.22l0.01,0.01l76.14-47.23c0.57-0.35,0.99-0.9,1.2-1.53C404.5,246,417.68,204.83,416.94,156.51z
		 M411.27,156.45c0.29,18.19-1.44,35.34-3.68,49.6c-7.15,8.46-16.17,16.47-25.45,23.6c2.95-14.37,5.6-32.06,6.13-50.89
		c0.14-4.81,0.11-9.52-0.03-14.14c11.06-10.88,18.4-20.86,22.06-26.29C410.85,144.2,411.17,150.23,411.27,156.45z M385.59,163.57
		c-10.23,9.94-23.62,20.53-40.1,28.93c-0.5-23.08-4.15-42.54-8.48-57.76c-0.46-1.61-0.93-3.17-1.41-4.72
		c15.71-8.14,27.65-18.55,36.48-28.49C381.27,121.81,384.84,143.66,385.59,163.57z M373.98,99.36c9.39-11.05,14.92-21.23,17.5-26.62
		c9.69,17.49,15.84,38,18.43,61.44c-2.38,3.78-9.65,14.62-21.79,26.89C387,137.8,382.24,117.12,373.98,99.36z M197.88,211.63
		c16.78-1.25,34.18-2.6,51.01-4.03c0,11.15-0.83,23.15-2.91,35.81c-15.06-1.76-31.46-3.2-48.75-3.99
		C198.11,230.02,198.24,220.64,197.88,211.63z M197.77,209.01c-0.57-11.25-1.88-21.82-3.39-30.99c17.44-4.14,34.48-8.72,50.32-13.39
		c2.26,11.38,4.02,25,4.2,40.34C232.03,206.4,214.59,207.77,197.77,209.01z M275.48,107.31c3.48,4.65,11.78,17.22,18.19,38.54
		c-13.36,4.92-29.39,10.25-47,15.49c-3.39-15.97-7.65-27.17-9.65-31.94c4.71-2.29,9.14-4.58,13.26-6.83
		C259.78,117.41,268.19,112.21,275.48,107.31z M277.67,105.82c15.1-10.33,25.07-19.11,29.35-23.11c4.16,5.92,14.53,22.2,22.52,47.39
		c-0.15,0.07-0.29,0.14-0.43,0.21c-0.05,0.02-0.1,0.05-0.15,0.08c-5.85,3.67-17.37,8.78-32.71,14.52
		C289.74,123.4,281.38,110.74,277.67,105.82z M238.87,122.02l13.67-27.34c11.66-4.69,23.58-10.44,35.51-17.49l-12.54,23.1
		C265.56,107.14,253.29,114.72,238.87,122.02z M234.97,123.96c-13.31,6.51-28.33,12.71-44.91,17.86l20.53-34.06
		c12.11-2.75,25.01-6.51,38.3-11.63L234.97,123.96z M234.67,130.54c1.98,4.73,6.18,15.8,9.51,31.55
		c-15.8,4.66-32.8,9.23-50.23,13.36c-2.22-12.83-4.75-22.58-5.99-27.04C205.59,143.22,221.25,136.92,234.67,130.54z M247.19,163.89
		c17.66-5.26,33.76-10.61,47.2-15.55c3.91,13.74,6.96,30.88,7.52,51.63c-15.04,1.63-32.36,3.24-50.44,4.79
		C251.28,189.23,249.5,175.42,247.19,163.89z M296.97,147.39c15.59-5.82,27.32-11.01,33.29-14.74c0.02-0.01,0.03-0.02,0.05-0.02
		c5.17,17.03,9.17,37.94,9.52,62.28c-8.47,1.56-20.72,3.17-35.29,4.78C303.97,177.88,300.71,160.47,296.97,147.39z M334.8,127.5
		c-8.81-27.32-20.24-44.17-24-49.24l16.97-27.53c20.59,12.83,34.25,29.82,43.1,48.26C362.24,108.87,350.44,119.33,334.8,127.5z
		 M305.13,76.66c-1.41,1.39-9.99,9.61-24.82,20.26l12.16-22.4c8.25-5.1,16.48-10.83,24.62-17.26L305.13,76.66z M290.51,72.66
		c-12.13,7.45-24.29,13.52-36.2,18.47l16.28-32.56c11.13-4.22,23.12-9.33,36-15.53L290.51,72.66z M250.64,92.62
		c-13.21,5.26-26.07,9.17-38.17,12.03l20.6-34.18c10.19-2.55,21.5-5.99,33.93-10.56L250.64,92.62z M208.92,105.46
		c-14.16,3.15-27.2,4.9-38.47,5.82l25.88-34.51c9.18-0.75,20.23-2.37,33.16-5.43L208.92,105.46z M207.07,108.53l-20.74,34.41
		c-14.57,4.32-30.3,7.8-47.09,9.96l29.13-38.84C179.62,113.24,192.76,111.59,207.07,108.53z M185.45,149.15
		c1.23,4.41,3.75,14.12,5.96,26.91c-16.84,3.94-34.03,7.45-50.87,10.23c-1.55-12.4-3.04-22.59-3.76-27.36
		C154.27,156.86,170.54,153.41,185.45,149.15z M140.83,213.02c-20.53,1.37-36.03,2.33-42.1,2.7c-0.59-6.72-1.25-13.87-2-21.41
		c13.29-1,27.25-2.71,41.52-5C139.15,196.76,140.06,204.89,140.83,213.02z M141.07,215.62c0.74,8.21,1.32,16.34,1.59,23.7
		c-13.75,0.62-27.74,1.79-41.78,3.6c-0.51-7.25-1.14-15.51-1.92-24.6C105.08,217.94,120.58,216.99,141.07,215.62z M140.86,188.87
		c16.87-2.78,34.1-6.3,50.98-10.25c1.49,9.07,2.76,19.5,3.33,30.59c-18.66,1.38-36.45,2.61-51.69,3.63
		C142.7,204.61,141.78,196.4,140.86,188.87z M195.28,211.82c0.36,8.92,0.22,18.2-0.66,27.49c-15.84-0.66-32.4-0.78-49.33-0.1
		c-0.26-7.41-0.83-15.56-1.57-23.76C158.92,214.42,176.66,213.19,195.28,211.82z M196.97,242.02c17.22,0.79,33.55,2.21,48.54,3.96
		c-0.94,5.35-2.11,10.81-3.52,16.36c-17.33-3.15-33.27-4.51-47.51-4.77C195.58,252.44,196.4,247.24,196.97,242.02z M248.13,246.29
		c19.27,2.32,36.24,5.14,49.93,7.77c-1.15,7.15-2.59,14.59-4.32,22.3c-17.29-6.23-33.76-10.59-49.17-13.52
		C246,257.22,247.18,251.7,248.13,246.29z M248.56,243.71c2.1-12.84,2.96-25.02,2.95-36.34c18.08-1.54,35.4-3.16,50.47-4.78
		c0.24,14.55-0.75,30.82-3.51,48.88C284.77,248.85,267.81,246.03,248.56,243.71z M304.6,202.31c14.48-1.59,26.71-3.19,35.26-4.74
		c0.07,18.58-2.01,39.13-7.28,61.45c-4.81-1.25-15.85-3.98-31.55-7.05C303.86,233.49,304.84,216.94,304.6,202.31z M345.54,195.42
		c16.35-8.17,29.76-18.48,40.16-28.33c0.09,3.94,0.07,7.8-0.04,11.54c-0.56,19.99-3.52,38.68-6.69,53.43
		c-16.27,12.11-32.65,21.38-40.25,25.47C343.87,234.75,345.73,213.95,345.54,195.42z M344,24.39
		c19.52,11.48,34.82,26.72,45.88,45.58c-1.98,4.4-7.29,15.02-17.15,26.82c-9.94-20.17-24.55-36.44-43.59-48.3L344,24.39z
		 M321.25,50.5c-8.64,7.24-17.42,13.65-26.23,19.32l15.61-28.75c7.77-3.82,15.85-8.03,24.24-12.66L321.25,50.5z M163.92,75.59
		c3.83,0.84,13.44,2.4,28.95,1.44l-25.88,34.51c-15.87,1.09-27.81,0.52-33.81,0.06L163.92,75.59z M131.09,114.04
		c5.01,0.46,17.11,1.26,33.84,0.25l-29.29,39.06c-12.68,1.47-25.95,2.19-39.77,1.94L131.09,114.04z M134.17,159.21
		c0.7,4.67,2.2,14.96,3.76,27.5c-14.25,2.28-28.19,3.99-41.46,4.99c-0.98-9.71-2.11-20.02-3.39-30.81
		C107.39,161.28,121.11,160.63,134.17,159.21z M101.06,245.53c14.01-1.81,27.96-2.98,41.68-3.6c0.21,8.01,0,14.94-0.83,19.86
		c-19.5,3.58-33.02,8.47-39.26,11.04C102.42,267.8,101.94,258.37,101.06,245.53z M163.8,258.75c-6.89,0.66-13.28,1.56-19.18,2.57
		c0.74-5.04,0.93-11.79,0.74-19.5c16.81-0.68,33.25-0.57,48.98,0.08c-0.58,5.25-1.41,10.48-2.53,15.64
		c-0.79-0.01-1.58-0.01-2.36-0.01C180.06,257.53,171.47,258.01,163.8,258.75z M323.91,288.85c-9.43-4.42-18.67-8.26-27.69-11.59
		c1.78-7.86,3.24-15.43,4.41-22.71c15.63,3.06,26.62,5.78,31.35,7.01C329.81,270.39,327.14,279.49,323.91,288.85z M337.94,260.9
		c6.13-3.23,22.95-12.45,40.18-24.98c-2.73,12.01-5.46,20.92-6.83,25.13l-40.51,25.13C333.63,277.51,335.99,269.09,337.94,260.9z
		 M399.28,243.68l-24.58,15.25c1.65-5.35,4.18-14.18,6.62-25.38c9.07-6.81,18.05-14.49,25.48-22.65
		C403.83,228.07,400.32,240.26,399.28,243.68z"/>
	<g>
		<path class="st1" d="M344,24.39l-14.85,24.1c19.04,11.87,33.64,28.13,43.59,48.3c9.85-11.8,15.17-22.42,17.15-26.82
			C378.82,51.11,363.52,35.87,344,24.39z"/>
		<path class="st1" d="M409.9,134.19c-2.59-23.44-8.74-43.95-18.43-61.44c-2.58,5.39-8.11,15.57-17.5,26.62
			c8.27,17.76,13.03,38.44,14.14,61.71C400.26,148.81,407.52,137.97,409.9,134.19z"/>
		<path class="st1" d="M385.59,163.57c-0.75-19.91-4.33-41.76-13.51-62.03c-8.82,9.94-20.77,20.35-36.48,28.49
			c0.48,1.55,0.95,3.11,1.41,4.72c4.33,15.22,7.98,34.68,8.48,57.76C361.97,184.1,375.36,173.51,385.59,163.57z"/>
		<path class="st1" d="M378.97,232.05c3.17-14.75,6.13-33.44,6.69-53.43c0.11-3.74,0.12-7.6,0.04-11.54
			c-10.41,9.85-23.81,20.16-40.16,28.33c0.19,18.54-1.67,39.34-6.81,62.11C346.33,253.43,362.71,244.17,378.97,232.05z"/>
		<path class="st1" d="M310.8,78.26c3.75,5.07,15.19,21.92,24,49.24c15.63-8.17,27.44-18.63,36.07-28.51
			c-8.85-18.44-22.51-35.43-43.1-48.26L310.8,78.26z"/>
		<path class="st1" d="M411.27,156.45c-0.1-6.22-0.43-12.25-0.96-18.11c-3.66,5.43-11.01,15.41-22.06,26.29
			c0.15,4.62,0.17,9.32,0.03,14.14c-0.54,18.83-3.18,36.52-6.13,50.89c9.27-7.13,18.3-15.15,25.45-23.6
			C409.84,191.78,411.56,174.64,411.27,156.45z"/>
		<path class="st1" d="M378.12,235.92c-17.22,12.53-34.05,21.75-40.18,24.98c-1.95,8.18-4.31,16.61-7.16,25.27l40.51-25.13
			C372.66,256.84,375.39,247.93,378.12,235.92z"/>
		<path class="st1" d="M381.32,233.55c-2.44,11.19-4.97,20.03-6.62,25.38l24.58-15.25c1.04-3.43,4.55-15.61,7.52-32.78
			C399.37,219.06,390.4,226.74,381.32,233.55z"/>
	</g>
	<g>
		<path class="st1" d="M301.92,199.97c-0.56-20.74-3.61-37.89-7.52-51.63c-13.44,4.94-29.54,10.29-47.2,15.55
			c2.3,11.52,4.08,25.34,4.28,40.86C269.56,203.21,286.88,201.6,301.92,199.97z"/>
		<path class="st1" d="M248.89,207.6c-16.83,1.42-34.24,2.78-51.01,4.03c0.36,9.01,0.23,18.39-0.65,27.79
			c17.29,0.79,33.69,2.23,48.75,3.99C248.06,230.75,248.89,218.75,248.89,207.6z"/>
		<path class="st1" d="M248.89,204.98c-0.18-15.34-1.94-28.96-4.2-40.34c-15.84,4.67-32.87,9.25-50.32,13.39
			c1.51,9.18,2.82,19.75,3.39,30.99C214.59,207.77,232.03,206.4,248.89,204.98z"/>
		<path class="st1" d="M301.98,202.59c-15.07,1.63-32.39,3.24-50.47,4.78c0.01,11.31-0.84,23.5-2.95,36.34
			c19.25,2.32,36.21,5.14,49.91,7.76C301.23,233.41,302.22,217.14,301.98,202.59z"/>
		<path class="st1" d="M339.84,194.91c-0.36-24.35-4.35-45.25-9.52-62.28c-0.02,0.01-0.03,0.02-0.05,0.02
			c-5.97,3.72-17.7,8.92-33.29,14.74c3.74,13.08,7,30.49,7.57,52.3C319.11,198.08,331.36,196.47,339.84,194.91z"/>
		<path class="st1" d="M163.8,258.75c7.67-0.74,16.26-1.22,25.66-1.22c0.78,0,1.57,0.01,2.36,0.01c1.12-5.16,1.95-10.39,2.53-15.64
			c-15.73-0.65-32.17-0.76-48.98-0.08c0.19,7.7,0,14.45-0.74,19.5C150.53,260.3,156.91,259.41,163.8,258.75z"/>
		<path class="st1" d="M195.28,211.82c-18.62,1.37-36.36,2.61-51.57,3.62c0.74,8.21,1.31,16.35,1.57,23.76
			c16.94-0.68,33.49-0.57,49.33,0.1C195.5,230.02,195.63,220.73,195.28,211.82z"/>
		<path class="st1" d="M136.77,158.92c0.72,4.78,2.21,14.97,3.76,27.36c16.84-2.77,34.03-6.28,50.87-10.23
			c-2.21-12.79-4.73-22.5-5.96-26.91C170.54,153.41,154.27,156.86,136.77,158.92z"/>
		<path class="st1" d="M250.29,122.59c-4.12,2.25-8.55,4.54-13.26,6.83c2,4.77,6.26,15.97,9.65,31.94
			c17.61-5.25,33.64-10.58,47-15.49c-6.41-21.32-14.72-33.89-18.19-38.54C268.19,112.21,259.78,117.41,250.29,122.59z"/>
		<path class="st1" d="M244.18,162.09c-3.33-15.76-7.53-26.82-9.51-31.55c-13.42,6.38-29.08,12.68-46.71,17.87
			c1.24,4.46,3.77,14.21,5.99,27.04C211.37,171.33,228.37,166.75,244.18,162.09z"/>
		<path class="st1" d="M277.67,105.82c3.71,4.91,12.08,17.58,18.57,39.08c15.34-5.74,26.86-10.85,32.71-14.52
			c0.05-0.03,0.1-0.06,0.15-0.08c0.15-0.07,0.29-0.14,0.43-0.21c-7.99-25.19-18.36-41.47-22.52-47.39
			C302.73,86.71,292.77,95.5,277.67,105.82z"/>
		<path class="st1" d="M298.06,254.05c-13.69-2.63-30.66-5.45-49.93-7.77c-0.95,5.41-2.13,10.93-3.56,16.54
			c15.41,2.94,31.88,7.29,49.17,13.52C295.48,268.65,296.91,261.21,298.06,254.05z"/>
		<path class="st1" d="M331.98,261.56c-4.73-1.23-15.72-3.95-31.35-7.01c-1.17,7.27-2.63,14.85-4.41,22.71
			c9.02,3.33,18.26,7.17,27.69,11.59C327.14,279.49,329.81,270.39,331.98,261.56z"/>
		<path class="st1" d="M245.52,245.98c-15-1.75-31.33-3.18-48.54-3.96c-0.57,5.22-1.39,10.42-2.49,15.56
			c14.24,0.25,30.19,1.62,47.51,4.77C243.41,256.79,244.57,251.33,245.52,245.98z"/>
		<path class="st1" d="M339.86,197.56c-8.55,1.55-20.78,3.15-35.26,4.74c0.24,14.63-0.74,31.18-3.56,49.66
			c15.69,3.07,26.74,5.8,31.55,7.05C337.86,236.69,339.93,216.15,339.86,197.56z"/>
		<path class="st1" d="M141.91,261.79c0.83-4.92,1.04-11.85,0.83-19.86c-13.72,0.62-27.68,1.79-41.68,3.6
			c0.88,12.84,1.37,22.27,1.6,27.3C108.9,270.26,122.42,265.37,141.91,261.79z"/>
		<path class="st1" d="M195.16,209.21c-0.56-11.09-1.84-21.52-3.33-30.59c-16.88,3.95-34.1,7.47-50.98,10.25
			c0.92,7.52,1.84,15.74,2.62,23.97C158.71,211.82,176.5,210.59,195.16,209.21z"/>
		<path class="st1" d="M140.83,213.02c-0.77-8.13-1.68-16.26-2.59-23.72c-14.27,2.29-28.23,4-41.52,5c0.75,7.54,1.41,14.69,2,21.41
			C104.8,215.34,120.3,214.38,140.83,213.02z"/>
		<path class="st1" d="M142.66,239.32c-0.27-7.37-0.84-15.49-1.59-23.7c-20.49,1.37-35.99,2.32-42.12,2.7
			c0.78,9.1,1.41,17.35,1.92,24.6C114.91,241.11,128.9,239.94,142.66,239.32z"/>
		<path class="st1" d="M137.92,186.71c-1.56-12.54-3.06-22.83-3.76-27.5c-13.06,1.42-26.77,2.07-41.1,1.68
			c1.29,10.79,2.41,21.1,3.39,30.81C109.73,190.7,123.68,188.99,137.92,186.71z"/>
	</g>
	<g>
		<path class="st1" d="M295.02,69.82c8.81-5.67,17.59-12.07,26.23-19.32l13.62-22.1c-8.39,4.64-16.47,8.84-24.24,12.66L295.02,69.82
			z"/>
		<path class="st1" d="M139.24,152.9c16.8-2.16,32.53-5.64,47.09-9.96l20.74-34.41c-14.32,3.06-27.45,4.71-38.71,5.53L139.24,152.9z
			"/>
		<path class="st1" d="M292.47,74.52l-12.16,22.4c14.83-10.64,23.41-18.87,24.82-20.26l11.95-19.39
			C308.96,63.69,300.72,69.42,292.47,74.52z"/>
		<path class="st1" d="M238.87,122.02c14.42-7.3,26.7-14.88,36.63-21.72l12.54-23.1c-11.93,7.04-23.85,12.79-35.51,17.49
			L238.87,122.02z"/>
		<path class="st1" d="M190.06,141.82c16.58-5.15,31.6-11.35,44.91-17.86l13.92-27.84c-13.29,5.13-26.18,8.89-38.3,11.63
			L190.06,141.82z"/>
		<path class="st1" d="M254.31,91.13c11.9-4.95,24.06-11.02,36.2-18.47l16.08-29.62c-12.88,6.2-24.87,11.31-36,15.53L254.31,91.13z"
			/>
		<path class="st1" d="M163.92,75.59l-30.75,36c6,0.47,17.95,1.03,33.81-0.06l25.88-34.51C177.36,77.99,167.75,76.43,163.92,75.59z"
			/>
		<path class="st1" d="M95.87,155.28c13.82,0.25,27.09-0.46,39.77-1.94l29.29-39.06c-16.72,1.01-28.83,0.21-33.84-0.25L95.87,155.28
			z"/>
		<path class="st1" d="M170.45,111.28c11.27-0.91,24.31-2.66,38.47-5.82l20.57-34.12c-12.93,3.06-23.98,4.68-33.16,5.43
			L170.45,111.28z"/>
		<path class="st1" d="M212.47,104.65c12.1-2.86,24.96-6.76,38.17-12.03l16.35-32.71c-12.43,4.57-23.73,8.01-33.93,10.56
			L212.47,104.65z"/>
	</g>
</g>
</svg>
